<?xml version="1.0" standalone="no"?>
<!DOCTYPE svg PUBLIC "-//W3C//DTD SVG 20010904//EN"
 "http://www.w3.org/TR/2001/REC-SVG-20010904/DTD/svg10.dtd">
<svg version="1.0" xmlns="http://www.w3.org/2000/svg"
 width="96.000000pt" height="96.000000pt" viewBox="0 0 96.000000 96.000000"
 preserveAspectRatio="xMidYMid meet">

<g transform="translate(0.000000,96.000000) scale(0.100000,-0.100000)"
fill="#000000" stroke="none">
<path d="M165 875 l-25 -24 0 -311 0 -311 25 -24 c16 -17 35 -25 60 -25 33 0
35 -2 35 -35 0 -25 8 -44 25 -60 l24 -25 231 0 231 0 24 25 25 24 0 311 0 311
-24 24 c-15 15 -31 22 -40 19 -21 -8 -20 -17 4 -39 19 -17 20 -31 20 -315 0
-217 -3 -299 -12 -308 -17 -17 -439 -17 -456 0 -7 7 -12 25 -12 40 l0 28 175
0 c173 0 176 0 200 25 l25 24 0 311 0 311 -25 24 -24 25 -231 0 -231 0 -24
-25z m483 -27 c17 -17 17 -599 0 -616 -17 -17 -439 -17 -456 0 -17 17 -17 599
0 616 17 17 439 17 456 0z"/>
<path d="M365 731 c-45 -19 -76 -80 -50 -101 12 -10 18 -6 35 23 40 67 130 55
130 -16 0 -27 -9 -40 -46 -71 -40 -34 -45 -42 -42 -74 4 -46 27 -49 42 -5 6
17 31 48 55 70 36 32 43 44 43 74 0 20 -5 46 -11 58 -23 42 -102 63 -156 42z"/>
<path d="M384 386 c-10 -26 4 -48 28 -44 33 4 33 52 0 56 -13 2 -25 -3 -28
-12z"/>
</g>
</svg>
